<?xml version="1.0" encoding="UTF-8" standalone="no"?>
<!DOCTYPE svg PUBLIC "-//W3C//DTD SVG 1.1//EN" "http://www.w3.org/Graphics/SVG/1.1/DTD/svg11.dtd">
<svg width="100px" height="100px" viewBox="0 0 21 21" version="1.1" xmlns="http://www.w3.org/2000/svg" xmlns:xlink="http://www.w3.org/1999/xlink" xml:space="preserve" xmlns:serif="http://www.serif.com/" style="fill-rule:evenodd;clip-rule:evenodd;stroke-linejoin:round;stroke-miterlimit:2;">
    <g transform="matrix(1,0,0,1,0,-519)">
        <g id="Artboard2" transform="matrix(0.71804,0,0,0.71804,42.1483,146.211)">
            <rect x="-58.699" y="519.175" width="27.991" height="27.991" style="fill:none;"/>
            <g transform="matrix(0.0223028,0,0,0.0223028,-44.6789,523.132)">
                <path d="M0,906.988C-246.816,906.988 -446.9,706.904 -446.9,460.089C-446.9,213.272 -246.816,13.188 0,13.188C246.816,13.188 446.9,213.272 446.9,460.089C446.9,706.904 246.816,906.988 0,906.988M-7.166,-23.644C-270.682,-23.644 -484.304,189.978 -484.304,453.494C-484.304,717.009 -270.682,930.632 -7.166,930.632C256.35,930.632 469.971,717.009 469.971,453.494C469.971,189.978 256.35,-23.644 -7.166,-23.644" style="fill:rgb(206,192,158);fill-rule:nonzero;"/>
            </g>
            <g transform="matrix(0.0223028,0,0,0.0223028,-37.2762,531.061)">
                <path d="M0,195.95L-37.909,195.95C-38.699,195.95 -39.339,195.31 -39.339,194.52C-39.339,179.178 -45.228,164.64 -55.921,153.586C-66.241,142.916 -79.944,136.601 -94.65,135.704L-94.65,194.52C-94.65,195.31 -95.291,195.95 -96.081,195.95L-133.99,195.95C-134.78,195.95 -135.42,195.31 -135.42,194.52L-135.42,-37.941C-135.42,-38.731 -134.78,-39.37 -133.99,-39.37L-96.081,-39.37C-95.291,-39.37 -94.65,-38.731 -94.65,-37.941L-94.65,94.374C-80.715,92.697 -67.851,86.085 -58.28,75.645C-48.29,64.747 -42.788,50.62 -42.788,35.865C-42.788,35.075 -42.147,34.434 -41.357,34.434L-3.448,34.434C-2.658,34.434 -2.018,35.075 -2.018,35.865C-2.018,66.477 -15.727,94.8 -39.705,113.879C-13.909,132.665 1.431,162.664 1.431,194.52C1.431,195.31 0.79,195.95 0,195.95M-150.322,194.52C-150.322,195.31 -150.963,195.95 -151.752,195.95L-189.662,195.95C-190.452,195.95 -191.092,195.31 -191.092,194.52L-191.092,122.994C-191.092,102.682 -207.617,86.158 -227.928,86.158C-248.24,86.158 -264.764,102.682 -264.764,122.994L-264.764,194.52C-264.764,195.31 -265.405,195.95 -266.194,195.95L-304.104,195.95C-304.894,195.95 -305.534,195.31 -305.534,194.52L-305.534,122.994C-305.534,80.202 -270.72,45.388 -227.928,45.388C-185.136,45.388 -150.322,80.202 -150.322,122.994L-150.322,194.52ZM-340.821,38.665C-357.417,38.665 -370.919,25.163 -370.919,8.567C-370.919,-8.028 -357.417,-21.529 -340.821,-21.529C-324.226,-21.529 -310.724,-8.028 -310.724,8.567C-310.724,25.163 -324.226,38.665 -340.821,38.665M-320.437,194.52C-320.437,195.31 -321.077,195.95 -321.867,195.95L-359.776,195.95C-360.566,195.95 -361.207,195.31 -361.207,194.52L-361.207,51.468C-361.207,50.678 -360.566,50.037 -359.776,50.037L-321.867,50.037C-321.077,50.037 -320.437,50.678 -320.437,51.468L-320.437,194.52ZM-373.808,70.138L-400.612,96.945C-401.148,97.482 -402.099,97.482 -402.635,96.945C-409.592,89.989 -418.842,86.158 -428.681,86.158C-448.992,86.158 -465.517,102.682 -465.517,122.994L-465.517,194.52C-465.517,195.31 -466.157,195.95 -466.947,195.95L-504.856,195.95C-505.646,195.95 -506.287,195.31 -506.287,194.52L-506.287,122.994C-506.287,80.202 -471.473,45.388 -428.681,45.388C-407.953,45.388 -388.465,53.459 -373.808,68.116C-373.249,68.675 -373.249,69.58 -373.808,70.138M-519.64,122.994C-519.64,165.786 -554.454,200.599 -597.246,200.599C-640.038,200.599 -674.852,165.786 -674.852,122.994C-674.852,80.202 -640.038,45.388 -597.246,45.388C-586.969,45.388 -576.974,47.371 -567.539,51.282C-566.81,51.585 -566.463,52.422 -566.765,53.151L-581.283,88.17C-581.586,88.9 -582.423,89.247 -583.152,88.944C-587.613,87.095 -592.355,86.158 -597.246,86.158C-617.558,86.158 -634.082,102.682 -634.082,122.994C-634.082,143.305 -617.558,159.83 -597.246,159.83C-576.934,159.83 -560.41,143.305 -560.41,122.994L-560.41,-37.941C-560.41,-38.731 -559.769,-39.37 -558.979,-39.37L-521.07,-39.37C-520.28,-39.37 -519.64,-38.731 -519.64,-37.941L-519.64,122.994ZM-336.71,-322.906C-569.157,-322.906 -757.592,-134.471 -757.592,97.975C-757.592,330.422 -569.157,518.856 -336.71,518.856C-104.264,518.856 84.171,330.422 84.171,97.975C84.171,-134.471 -104.264,-322.906 -336.71,-322.906" style="fill:rgb(206,192,158);fill-rule:nonzero;"/>
            </g>
        </g>
    </g>
</svg>
