<svg width="100" height="100" viewBox="0 0 100 100" fill="none" xmlns="http://www.w3.org/2000/svg">
<path d="M50.4693 94.7276C25.9133 94.7276 6.00676 74.821 6.00676 50.2651C6.00676 25.709 25.9133 5.8024 50.4693 5.8024C75.0253 5.8024 94.9319 25.709 94.9319 50.2651C94.9319 74.821 75.0253 94.7276 50.4693 94.7276ZM49.7564 2.13794C23.5389 2.13794 2.2854 23.3914 2.2854 49.6089C2.2854 75.8263 23.5389 97.0799 49.7564 97.0799C75.9739 97.0799 97.2273 75.8263 97.2273 49.6089C97.2273 23.3914 75.9739 2.13794 49.7564 2.13794Z" fill="#CEC09E"/>
<path d="M83.4813 59.3608H79.7097C79.6311 59.3608 79.5675 59.2971 79.5675 59.2185C79.5675 57.6922 78.9816 56.2458 77.9177 55.146C76.8909 54.0844 75.5276 53.4561 74.0645 53.3669V59.2185C74.0645 59.2971 74.0007 59.3608 73.9221 59.3608H70.1505C70.0719 59.3608 70.0083 59.2971 70.0083 59.2185V36.0907C70.0083 36.0121 70.0719 35.9486 70.1505 35.9486H73.9221C74.0007 35.9486 74.0645 36.0121 74.0645 36.0907V49.2549C75.4509 49.0881 76.7308 48.4302 77.683 47.3915C78.6769 46.3073 79.2243 44.9018 79.2243 43.4338C79.2243 43.3552 79.2881 43.2914 79.3667 43.2914H83.1383C83.2169 43.2914 83.2806 43.3552 83.2806 43.4338C83.2806 46.4794 81.9166 49.2973 79.531 51.1955C82.0975 53.0645 83.6237 56.0492 83.6237 59.2185C83.6237 59.2971 83.5599 59.3608 83.4813 59.3608ZM68.5256 59.2185C68.5256 59.2971 68.4619 59.3608 68.3834 59.3608H64.6117C64.5331 59.3608 64.4694 59.2971 64.4694 59.2185V52.1023C64.4694 50.0815 62.8253 48.4375 60.8045 48.4375C58.7837 48.4375 57.1397 50.0815 57.1397 52.1023V59.2185C57.1397 59.2971 57.0759 59.3608 56.9974 59.3608H53.2257C53.1471 59.3608 53.0834 59.2971 53.0834 59.2185V52.1023C53.0834 47.8449 56.5471 44.3812 60.8045 44.3812C65.062 44.3812 68.5256 47.8449 68.5256 52.1023V59.2185ZM49.5727 43.7124C47.9215 43.7124 46.5782 42.369 46.5782 40.7179C46.5782 39.0668 47.9215 37.7236 49.5727 37.7236C51.2237 37.7236 52.5671 39.0668 52.5671 40.7179C52.5671 42.369 51.2237 43.7124 49.5727 43.7124ZM51.6007 59.2185C51.6007 59.2971 51.537 59.3608 51.4584 59.3608H47.6868C47.6082 59.3608 47.5445 59.2971 47.5445 59.2185V44.9861C47.5445 44.9075 47.6082 44.8438 47.6868 44.8438H51.4584C51.537 44.8438 51.6007 44.9075 51.6007 44.9861V59.2185ZM46.2908 46.8436L43.624 49.5107C43.5707 49.5641 43.4761 49.5641 43.4227 49.5107C42.7306 48.8186 41.8103 48.4375 40.8314 48.4375C38.8106 48.4375 37.1665 50.0815 37.1665 52.1023V59.2185C37.1665 59.2971 37.1029 59.3608 37.0243 59.3608H33.2527C33.1741 59.3608 33.1103 59.2971 33.1103 59.2185V52.1023C33.1103 47.8449 36.574 44.3812 40.8314 44.3812C42.8936 44.3812 44.8325 45.1842 46.2908 46.6425C46.3464 46.6981 46.3464 46.7881 46.2908 46.8436ZM31.7818 52.1023C31.7818 56.3598 28.3181 59.8234 24.0607 59.8234C19.8032 59.8234 16.3396 56.3598 16.3396 52.1023C16.3396 47.8449 19.8032 44.3812 24.0607 44.3812C25.0831 44.3812 26.0776 44.5785 27.0162 44.9676C27.0888 44.9978 27.1233 45.0811 27.0933 45.1536L25.6488 48.6377C25.6187 48.7103 25.5354 48.7448 25.4629 48.7147C25.0191 48.5307 24.5473 48.4375 24.0607 48.4375C22.0398 48.4375 20.3958 50.0815 20.3958 52.1023C20.3958 54.1231 22.0398 55.7672 24.0607 55.7672C26.0815 55.7672 27.7255 54.1231 27.7255 52.1023V36.0907C27.7255 36.0121 27.7893 35.9486 27.8679 35.9486H31.6395C31.7181 35.9486 31.7818 36.0121 31.7818 36.0907V52.1023ZM49.9817 7.73926C26.8553 7.73926 8.10767 26.4869 8.10767 49.6132C8.10767 72.7396 26.8553 91.4871 49.9817 91.4871C73.108 91.4871 91.8556 72.7396 91.8556 49.6132C91.8556 26.4869 73.108 7.73926 49.9817 7.73926Z" fill="#CEC09E"/>
</svg>
